<svg xmlns="http://www.w3.org/2000/svg" xmlns:xlink="http://www.w3.org/1999/xlink" version="1.1" x="0px" y="0px" viewBox="0 0 100 125" enable-background="new 0 0 100 100" xml:space="preserve"><path fill="#fff" d="M33.835,66.528c1.536-0.623,2.577-1.732,3.133-2.888c0.269-0.557,0.422-1.089,0.536-1.601c0.306,0.066,51.908,0,51.908,0  l5.587-32.767l-2.921-0.422l-4.976,29.863l-50.287-0.006L24.524,23.187l-0.688-2.399c-0.131-0.317-0.245-0.622-0.306-0.806  c-0.824-2.132-2.18-3.509-3.354-4.326c-1.138-0.828-2.088-1.116-2.224-1.161l-0.047-0.017L5.711,11.523L5,14.9l11.596,3.016  c0.131,0.05,0.688,0.294,1.308,0.738c0.688,0.533,1.447,1.327,1.958,2.622c0.642,1.688,4.088,11.257,7.375,20.371  c1.644,4.554,3.244,9.019,4.443,12.33c1.043,2.933,1.78,4.954,1.955,5.398c0.022,0.155,0.091,0.578,0.091,1.088  c0,0.534-0.091,1.134-0.313,1.6c-0.245,0.467-0.581,0.867-1.335,1.2c-2.372,1.044-3.754,3.354-3.776,5.753  c-0.017,1.512,0.602,3.11,1.933,4.244c1.316,1.133,3.202,1.732,5.49,1.732c0.619,0,1.513,0,2.552,0l2.436,0.005  c-2.391,1.145-4.077,3.544-4.077,6.37c0,3.921,3.186,7.109,7.109,7.109c3.929,0,7.103-3.188,7.103-7.109  c0-2.815-1.671-5.203-4.051-6.358l1.7,0.006c4.374,0,9.349,0.021,14.17,0.044c3.354,0,6.642,0,9.597,0l2.885-0.017  c-2.351,1.161-4.013,3.532-4.013,6.325c0,3.921,3.188,7.109,7.109,7.109c3.933,0,7.108-3.188,7.108-7.109  c0-2.821-1.674-5.214-4.062-6.358l5.988-0.039l0.623-3.465c0,0-44.561-0.067-51.82-0.067c-1.713-0.021-2.668-0.444-3.157-0.866  c-0.489-0.444-0.689-0.933-0.689-1.556C32.213,68.061,32.88,66.928,33.835,66.528z"/></svg>